<svg width="18" height="18" viewBox="0 0 18 18" fill="none" xmlns="http://www.w3.org/2000/svg">
<path d="M6.00074 9C6.00074 7.34322 7.34353 5.99976 9.00037 5.99976C10.6572 5.99976 12.0007 7.34322 12.0007 9C12.0007 10.6568 10.6572 12.0002 9.00037 12.0002C7.34353 12.0002 6.00074 10.6568 6.00074 9ZM4.37876 9C4.37876 11.5524 6.44787 13.6214 9.00037 13.6214C11.5529 13.6214 13.6219 11.5524 13.6219 9C13.6219 6.4476 11.5529 4.37863 9.00037 4.37863C6.44787 4.37863 4.37888 6.44748 4.37888 9H4.37876ZM12.7249 4.19537C12.7248 4.40898 12.7881 4.61782 12.9067 4.79547C13.0253 4.97312 13.194 5.11162 13.3912 5.19342C13.5886 5.27522 13.8057 5.29669 14.0152 5.25513C14.2248 5.21357 14.4173 5.11078 14.5684 4.95979C14.7195 4.8088 14.8224 4.61643 14.8642 4.40693C14.906 4.19742 14.8847 3.98026 14.803 3.78288C14.7213 3.5855 14.5829 3.41678 14.4054 3.29806C14.2278 3.17929 14.019 3.11589 13.8054 3.11583H13.805C13.5186 3.11595 13.2441 3.22972 13.0416 3.4321C12.8391 3.63455 12.7252 3.90908 12.7249 4.19537ZM5.36424 16.3258C4.48675 16.2859 4.00975 16.1397 3.6928 16.0163C3.27263 15.8527 2.97281 15.6578 2.65756 15.3431C2.34233 15.0283 2.1472 14.7287 1.98433 14.3086C1.86077 13.9918 1.71461 13.5147 1.67471 12.6372C1.63108 11.6886 1.62237 11.4036 1.62237 9.00012C1.62237 6.59672 1.6318 6.31254 1.67471 5.36305C1.71468 4.48559 1.86192 4.00946 1.98433 3.69173C2.14792 3.27152 2.34276 2.97171 2.65756 2.65651C2.97233 2.3413 3.27191 2.14618 3.6928 1.98332C4.00963 1.85976 4.48675 1.7136 5.36424 1.67371C6.31293 1.63008 6.5979 1.62137 9.00037 1.62137C11.4028 1.62137 11.6881 1.63066 12.6376 1.67386C13.5151 1.71382 13.9912 1.86106 14.309 1.98346C14.7292 2.14632 15.029 2.34187 15.3443 2.65666C15.6595 2.97147 15.8539 3.2717 16.0175 3.69185C16.1411 4.00867 16.2872 4.48577 16.3271 5.36323C16.3707 6.31266 16.3795 6.59684 16.3795 9.0003C16.3795 11.4037 16.3707 11.6879 16.3271 12.6374C16.2871 13.5148 16.1402 13.9918 16.0175 14.3087C15.8539 14.7289 15.6591 15.0287 15.3443 15.3432C15.0294 15.6577 14.7292 15.8528 14.309 16.0164C13.9922 16.1399 13.5151 16.2861 12.6376 16.326C11.6889 16.3696 11.4039 16.3783 9.00037 16.3783C6.59682 16.3783 6.31262 16.3696 5.36424 16.326V16.3258ZM5.28968 0.0545082C4.33153 0.0981401 3.67681 0.250058 3.10505 0.472537C2.51326 0.70229 2.01161 1.01052 1.51069 1.51063C1.00977 2.01074 0.702318 2.51244 0.472555 3.10491C0.250062 3.67701 0.0981379 4.3314 0.0545043 5.28946C0.0101529 6.24908 0 6.55588 0 9C0 11.4441 0.0101529 11.7509 0.0545043 12.7105C0.0981379 13.6687 0.250062 14.3229 0.472555 14.8951C0.702318 15.4869 1.00984 15.9895 1.51069 16.4894C2.01154 16.9893 2.51254 17.2971 3.10505 17.5275C3.6779 17.75 4.33153 17.9019 5.28968 17.9455C6.24983 17.9891 6.55616 18 9.00037 18C11.4446 18 11.7514 17.9899 12.7111 17.9455C13.6693 17.9019 14.3236 17.75 14.8957 17.5275C15.4875 17.2971 15.9891 16.9895 16.49 16.4894C16.991 15.9892 17.2977 15.4869 17.5282 14.8951C17.7507 14.3229 17.9033 13.6686 17.9463 12.7105C17.9899 11.7502 18 11.4441 18 9C18 6.55588 17.9899 6.24908 17.9463 5.28946C17.9026 4.33128 17.7507 3.67671 17.5282 3.10491C17.2977 2.51316 16.9901 2.01154 16.49 1.51063C15.9899 1.00973 15.4875 0.70229 14.8964 0.472537C14.3236 0.250058 13.6692 0.0974162 12.7117 0.0545082C11.7519 0.0106592 11.4453 0 9.00146 0C6.55761 0 6.25019 0.0101525 5.29004 0.0545082" fill="white"/>
</svg>
