<svg width="24" height="24" viewBox="0 0 24 24" fill="none" xmlns="http://www.w3.org/2000/svg">
<path d="M11.6398 19L10.8568 18.2933C9.50705 17.0582 8.39291 15.9918 7.51432 15.0941C6.63574 14.1965 5.93543 13.3943 5.41337 12.6876C4.89131 11.9809 4.52524 11.3411 4.31514 10.7681C4.10505 10.1951 4 9.61573 4 9.03001C4 7.88404 4.38518 6.92588 5.15553 6.15553C5.92588 5.38518 6.87767 5 8.01091 5C8.7367 5 9.40837 5.1719 10.0259 5.51569C10.6435 5.85948 11.1814 6.35607 11.6398 7.00546C12.1746 6.31787 12.7412 5.81173 13.3397 5.48704C13.9382 5.16235 14.5812 5 15.2688 5C16.402 5 17.3538 5.38518 18.1241 6.15553C18.8945 6.92588 19.2797 7.88404 19.2797 9.03001C19.2797 9.61573 19.1746 10.1951 18.9645 10.7681C18.7544 11.3411 18.3884 11.9809 17.8663 12.6876C17.3442 13.3943 16.6439 14.1965 15.7653 15.0941C14.8868 15.9918 13.7726 17.0582 12.4229 18.2933L11.6398 19Z" fill="#0266FF"/>
</svg>
