<svg width="16" height="19" viewBox="0 0 16 19" fill="none" xmlns="http://www.w3.org/2000/svg">
<path d="M16 7.7916C14.4272 7.79551 12.893 7.28587 11.6141 6.33469V12.9686C11.6137 14.1972 11.2522 15.3965 10.5781 16.4059C9.90398 17.4154 8.94932 18.187 7.84177 18.6175C6.73422 19.048 5.52657 19.1169 4.3803 18.8151C3.23403 18.5132 2.20377 17.8549 1.4273 16.9282C0.650823 16.0015 0.165135 14.8506 0.0351789 13.6294C-0.0947772 12.4082 0.137193 11.1749 0.700072 10.0943C1.26295 9.01378 2.12991 8.13754 3.18502 7.58276C4.24013 7.02799 5.4331 6.82113 6.60442 6.98984V10.3264C6.06842 10.1513 5.49286 10.1565 4.95992 10.3415C4.42698 10.5265 3.96393 10.8817 3.63688 11.3564C3.30983 11.8312 3.13551 12.4011 3.13882 12.9849C3.14213 13.5687 3.32289 14.1365 3.6553 14.6072C3.98771 15.0779 4.45477 15.4274 4.98976 15.6059C5.52476 15.7843 6.10035 15.7825 6.63432 15.6008C7.16829 15.4191 7.63335 15.0667 7.96307 14.594C8.2928 14.1213 8.47033 13.5524 8.47032 12.9686V0H11.6141C11.6119 0.275844 11.6341 0.551313 11.6805 0.822923C11.7898 1.42925 12.0169 2.00605 12.3481 2.51804C12.6792 3.03003 13.1074 3.46644 13.6064 3.80059C14.3164 4.28837 15.1488 4.54835 16 4.54816V7.7916Z" fill="white"/>
</svg>
