<svg width="30" height="30" viewBox="0 0 30 30" fill="none" xmlns="http://www.w3.org/2000/svg">
<circle cx="15" cy="15" r="15" fill="#192140"/>
<path d="M21.8442 10.6999C19.4442 6.99988 14.5442 5.89988 10.7442 8.19988C7.04421 10.4999 5.84421 15.4999 8.24421 19.1999L8.44421 19.4999L7.64421 22.4999L10.6442 21.6999L10.9442 21.8999C12.2442 22.5999 13.6442 22.9999 15.0442 22.9999C16.5442 22.9999 18.0442 22.5999 19.3442 21.7999C23.0442 19.3999 24.1442 14.4999 21.8442 10.6999ZM19.7442 18.3999C19.3442 18.9999 18.8442 19.3999 18.1442 19.4999C17.7442 19.4999 17.2442 19.6999 15.2442 18.8999C13.5442 18.0999 12.1442 16.7999 11.1442 15.2999C10.5442 14.5999 10.2442 13.6999 10.1442 12.7999C10.1442 11.9999 10.4442 11.2999 10.9442 10.7999C11.1442 10.5999 11.3442 10.4999 11.5442 10.4999H12.0442C12.2442 10.4999 12.4442 10.4999 12.5442 10.8999C12.7442 11.3999 13.2442 12.5999 13.2442 12.6999C13.3442 12.7999 13.3442 12.9999 13.2442 13.0999C13.3442 13.2999 13.2442 13.4999 13.1442 13.5999C13.0442 13.6999 12.9442 13.8999 12.8442 13.9999C12.6442 14.0999 12.5442 14.2999 12.6442 14.4999C13.0442 15.0999 13.5442 15.6999 14.0442 16.1999C14.6442 16.6999 15.2442 17.0999 15.9442 17.3999C16.1442 17.4999 16.3442 17.4999 16.4442 17.2999C16.5442 17.0999 17.0442 16.5999 17.2442 16.3999C17.4442 16.1999 17.5442 16.1999 17.7442 16.2999L19.3442 17.0999C19.5442 17.1999 19.7442 17.2999 19.8442 17.3999C19.9442 17.6999 19.9442 18.0999 19.7442 18.3999Z" fill="white"/>
</svg>
